<?xml version="1.0" encoding="utf-8"?>
<!-- Generator: Adobe Illustrator 20.0.0, SVG Export Plug-In . SVG Version: 6.00 Build 0)  -->
<svg version="1.1" id="Layer_1" xmlns="http://www.w3.org/2000/svg" xmlns:xlink="http://www.w3.org/1999/xlink" x="0px" y="0px"
	 viewBox="0 0 180 45" style="enable-background:new 0 0 180 45;" xml:space="preserve">
<style type="text/css">
	.st0{fill:#539A5B;}
	.st1{fill:#327EA5;}
</style>
<g>
	<path class="st0" d="M73.5,9.2c5.6,0.7,11,0.1,16.4-0.8c2.8-0.5,5.2-2,7.8-3.1c5.6-2.3,11.2-4.4,17.4-4.8c6.8-0.4,13.1,1,19.1,4
		c1.4,0.7,2.9,1.4,4.2,2.1c5.2,2.9,10.7,4.4,16.8,4.3c4.5,0,9.1,0.3,13.4,2.1c4.6,1.9,7.5,5.3,8.5,10.1c0.2,0.7,0.5,1.7-0.4,2
		c-0.9,0.2-0.6-0.9-0.7-1.4c-1.6-5.2-5.4-7.8-10.3-9.2c-4.5-1.2-9.1-1.5-13.7-1.6c-3.9,0-7.4-1-10.8-2.8c-4.9-2.6-9.8-4.9-15.2-6.4
		c-8.3-2.3-16.2-0.5-24,2.3c-4.4,1.6-8.4,4-13.1,4.9c-5.1,0.9-10.2,1.3-15.4,0.7c-0.8-0.1-1.5-0.1-1.4-1.3C72.3,9.3,72.7,9,73.5,9.2
		"/>
	<path class="st1" d="M55,25.3c4.4-2.8,7.8-2.7,10.3,0.1c2.4,2.6,2.6,7.2,0.4,10.1c-2.1,2.9-5.8,3.8-9.2,2c-1.1-0.6-1.4-0.4-1.5,0.8
		c-0.1,1.4-0.3,2.9-0.4,4.3c-0.1,1.4-0.8,1.7-2,1.5c-1.2-0.2-1.5-0.4-1.4-1.8c0.5-5.5,0.2-11,0.2-16.5c0-1.3,0-2.1,1.7-2.4
		C54.5,23.2,55.1,23.6,55,25.3 M63.3,30.7c0-2.6-1.8-4.5-4.1-4.5c-2.5,0-4,1.9-3.9,5c0.1,2.6,1.7,4.3,4,4.3
		C61.7,35.4,63.4,33.4,63.3,30.7"/>
	<path class="st1" d="M2.7,44.6c0,0,2.8-4.7,3.3-5.5c3.8-6.1,7.7-12.2,11.5-18.3c0.5-0.8,0.8-1.9,2.1-0.9c0.6,0.5,0.9-0.4,1.2-0.8
		c1.5-2.2,2.9-4.5,4.6-7.1c4.1,7.2,13.3,23.6,13.3,23.6s-8.7-10.6-12-14.9c-1-1.3-1.6-1.5-2.4,0c-0.5,1-1.3,1.8-1.9,2.7
		c-0.2,0.3-0.6,0.9-0.8,0.7c-1.7-1.5-2,0.4-2.6,1.1C15,29.8,11.1,34.4,7.3,39C6.5,40,2.7,44.6,2.7,44.6"/>
	<path class="st1" d="M46.4,32.1c0,1.5,0.8,2.6,2.2,2.8c1.9,0.3,1.1,1.4,1.1,2.4c0,1.4-1,0.9-1.8,0.8c-3.2-0.5-5-2.2-5.4-5.5
		c-0.5-4.9-0.2-9.9-0.2-14.8c0-1.8,1.6-0.7,2.4-0.9c0.9-0.2,1.6,0,1.6,1.2C46.2,20.3,46.3,29.7,46.4,32.1"/>
	<path class="st0" d="M152.1,31c-1.5,0-3,0.1-4.5,0c-1.2-0.1-1.4,0.5-1.2,1.5c0.4,2.5,2.4,4.4,5.1,4.6c0.6,0,1.2,0,1.8,0.1
		c0.4,0,0.7,0.2,0.7,0.6c0,0.5-0.3,0.7-0.8,0.7c-2.3,0.2-4.4-0.2-6.2-1.7c-2.5-2.2-3.1-6.3-1.3-9.6c1.5-2.9,5.1-4.3,8.3-3.3
		c2.4,0.7,4.4,3.8,4.2,6.3c-0.1,0.8-0.4,1-1.2,1C155.4,31,153.7,31,152.1,31 M151.4,29.8c1.3,0,2.6,0,3.9,0c1.1,0.1,1.4-0.3,1.1-1.5
		c-0.5-2-1.6-3.3-3.7-3.6c-2.6-0.4-4.5,0.6-5.7,2.7c-1.1,2-0.9,2.3,1.3,2.3C149.4,29.8,150.4,29.8,151.4,29.8"/>
	<path class="st0" d="M137.3,26.7c0-1,0-1.8-1.4-1.7c-0.4,0-0.9,0-0.9-0.6c0-0.5,0.4-0.7,0.9-0.7c1.5,0.2,1.3-0.9,1.5-1.9
		c0.4-3.8,2.7-5.9,5.9-5.4c0.6,0.1,1.4,0,1.4,0.9c-0.1,1.1-0.9,0.5-1.4,0.4c-2.9-0.2-4.8,2-4.3,5.1c0.1,0.6,0.3,0.9,0.9,0.9
		c0.6,0,3.1-0.7,3.1,0.6c0,0.7-0.3,0.6-1.3,0.7c-2.9,0-2.8,0.7-2.7,2.9c0.2,4.1,0,8.1,0.1,12.2c0,1.3-0.2,2.5-0.7,3.6
		c-0.2,0.6-0.6,0.7-1.2,0.5c-0.5-0.1-0.4-0.5-0.3-0.8C137.9,40.2,137.3,29,137.3,26.7"/>
	<path class="st0" d="M109.3,26c1.7-1.8,3.6-2.9,6.1-2.5c2.6,0.4,4.3,2,4.8,4.9c0.5,3-0.5,6.2,0.7,9.2c0.2,0.4-0.2,0.6-0.5,0.8
		c-0.4,0.2-0.8,0.1-1-0.4c-0.4-0.9-0.6-1.8-0.6-2.8c0-1.9,0.1-3.9,0-5.8c-0.2-3.1-1.9-4.7-4.6-4.7c-2.8,0.1-4.8,2.2-4.9,5.1
		c0,2.2,0,4.4,0,6.6c0,0.6,0.4,1.5-0.7,1.6c-1.3,0-0.9-1-0.9-1.7c0-3.6,0-7.3,0-10.9c0-0.6-0.5-1.6,0.7-1.6
		C109.4,23.7,109.2,25.7,109.3,26"/>
	<path class="st0" d="M101.2,36.1c-1.8,1.8-3.7,2.6-6,2.3c-1.8-0.2-3.3-1.1-3.7-3c-0.4-1.9,0.2-3.4,1.8-4.5c1.8-1.3,3.9-1.6,6.1-1.6
		c1.9,0,1.9-1,1.4-2.3c-0.6-1.4-1.7-2.3-3.4-2.2c-0.6,0-1.4,0.1-1.3-0.8c0.1-0.8,0.8-0.5,1.3-0.5c2.8,0,4.9,1.7,5.1,4.6
		c0.3,3.1-0.2,6.2,0.5,9.2c0.1,0.5-0.1,1-0.7,1c-0.6,0.1-0.6-0.4-0.8-0.8C101.4,37.1,101.4,36.7,101.2,36.1 M94.4,31.7
		c-1.2,0.9-1.5,2.1-1.2,3.4c0.3,1.3,1.3,1.9,2.6,2c3,0.4,5.4-1.8,5.5-4.9c0-1.1-0.1-1.9-0.9-1.9C100.1,30.4,96.1,30.5,94.4,31.7"/>
	<path class="st0" d="M76,27.6c0-1.4,0.2-2.9-2-2.6c-0.4,0-0.7-0.1-0.7-0.6c0-0.4,0.3-0.7,0.7-0.6c1.7,0.2,2.1-0.7,2-2.2
		c0-0.6,0.5-0.8,1-0.8c0.6,0,0.5,0.6,0.5,0.9c-0.3,1.8,0.7,2.1,2.2,2c0.4,0,0.8,0,1.2,0c0.4,0,0.9,0,0.9,0.6c0,0.5-0.4,0.6-0.8,0.7
		c-1.1,0.3-2.7-0.7-3.3,0.7c-0.4,1.1-0.2,6.8-0.1,8.4c0.1,2.4,0.6,2.8,3,2.9c0.5,0,1.2-0.3,1.2,0.6c0,0.6-0.6,0.6-1.1,0.7
		c-2.4,0.5-4.2-0.7-4.6-3.2C76,33.6,76,28.5,76,27.6"/>
	<path class="st0" d="M128.1,38.4c-0.9,0.1-1.8-0.2-2.7-0.5c-0.5-0.2-1.1-0.4-0.8-1.1c0.3-0.6,0.8-0.4,1.2-0.2
		c1.4,0.5,2.8,0.8,4.2,0.3c1.1-0.4,1.8-1,1.9-2.2c0.1-1.1-0.3-2.1-1.3-2.6c-1.2-0.6-2.4-1-3.6-1.6c-1.5-0.7-2.4-1.8-2.2-3.6
		c0.2-1.9,1.4-2.9,3.1-3.4c1.4-0.4,2.7-0.3,4,0.3c0.5,0.2,0.9,0.4,0.7,1c-0.2,0.7-0.7,0.5-1.2,0.3c-1-0.5-2-0.5-3-0.4
		c-1.2,0.1-1.9,0.8-2.1,1.9c-0.3,1.2,0.2,2,1.2,2.6c0.7,0.4,1.5,0.6,2.3,0.9c2.8,1.1,4,2.6,3.6,4.8C133,37.2,131.1,38.4,128.1,38.4"
		/>
	<path class="st0" d="M87.4,26.1c1-1.4,2-2.5,3.7-2.6c0.5,0,1-0.1,1.2,0.5c0.1,0.6-0.2,0.7-0.8,0.9c-2.8,0.7-4,2.2-4.1,5.3
		c-0.1,2,0,4,0,6c0,0.7,0.6,1.9-0.8,1.9c-1.2,0-0.7-1.1-0.7-1.8c0-3.6,0-7.3,0-10.9c0-0.5-0.4-1.4,0.5-1.5c0.9-0.1,0.7,0.8,0.9,1.3
		C87.2,25.4,87.3,25.6,87.4,26.1"/>
	<path class="st0" d="M162.5,26c1-1.2,1.9-2.4,3.5-2.5c0.5,0,1.5-0.2,1.5,0.5c0,0.7-0.6,0.8-1.1,0.9c-2.5,0.6-3.8,2.3-3.9,5.3
		c-0.1,2,0,4,0,6c0,0.7,0.6,1.9-0.8,1.9c-1.2,0-0.7-1.1-0.7-1.8c0-3.6,0-7.3,0-10.9c0-0.5-0.4-1.4,0.5-1.5c0.9-0.1,0.7,0.8,0.9,1.3
		C162.4,25.4,162.4,25.6,162.5,26"/>
</g>
</svg>
